<?xml version="1.0" encoding="utf-8"?>
<!-- Generator: Adobe Illustrator 22.1.0, SVG Export Plug-In . SVG Version: 6.00 Build 0)  -->
<svg version="1.1" id="Layer_1" xmlns="http://www.w3.org/2000/svg" xmlns:xlink="http://www.w3.org/1999/xlink" x="0px" y="0px"
	 viewBox="0 0 578.4 52.9" style="enable-background:new 0 0 578.4 52.9;" xml:space="preserve">
<style type="text/css">
	.st0{fill:#AC1E2D;}
	.st1{fill:none;}
	.st2{fill:#221F20;}
	.st3{fill:#55565A;}
	.st4{clip-path:url(#SVGID_2_);fill:#414042;}
	.st5{fill:#414042;}
	.st6{clip-path:url(#SVGID_4_);fill:#414042;}
	.st7{clip-path:url(#SVGID_6_);fill:#414042;}
	.st8{clip-path:url(#SVGID_8_);fill:#414042;}
	.st9{clip-path:url(#SVGID_10_);fill:#414042;}
	.st10{clip-path:url(#SVGID_10_);fill:#55565A;}
	.st11{clip-path:url(#SVGID_12_);fill:#55565A;}
	.st12{clip-path:url(#SVGID_14_);fill:#AC1E2D;}
</style>
<g>
	<g>
		<path class="st0" d="M11.5,8.3c-0.2-1.5-1-3-2.6-3C6.9,5.3,6,6.9,6,10.6c0,3.8,0.9,5.7,3.3,5.7c1.8,0,2.9-1.6,3.2-3.2l3.7,0.8
			c-1.2,4.1-3.7,5.8-7.9,5.8c-3.3,0-7.5-2.6-7.5-8.8c0-6.3,4.1-9,8.2-9c4.3,0,6.7,2.9,7,6L11.5,8.3z"/>
		<path class="st0" d="M25,13.3c0-2.8-0.7-3.6-2-3.6c-1.2,0-2,0.8-2,3.6c0,2.8,0.8,3.6,2,3.6C24.3,16.9,25,16.1,25,13.3 M23,19.7
			c-3.8,0-6.5-2.3-6.5-6.4C16.6,9.6,19.1,7,23,7c3.7,0,6.5,2.5,6.5,6.4C29.5,17.2,26.9,19.7,23,19.7"/>
		<path class="st0" d="M30.1,7.3h4.3v1.9h0C35.2,7.8,37,7.1,38.6,7v4.5c-0.9-0.4-1.7-0.6-2.3-0.6c-0.8,0-1.4,0.3-2,0.8v7.7h-4.3V7.3
			z"/>
		<path class="st0" d="M39.3,7.3h4.3V9c1-1,2.4-2,3.9-2c1.2,0,3.5,0.7,3.5,3.7v8.7h-4.3v-7.7c0-0.9-0.2-1.8-1.3-1.8
			c-0.6,0-1.2,0.5-1.8,1.1v8.3h-4.3V7.3z"/>
		<path class="st0" d="M60,11.8c0-1.3-0.5-2.3-1.8-2.3c-1.5,0-2,1-2,2.3H60z M56.1,14.1c0,1.7,1.2,2.8,2.8,2.8
			c1.1,0,2.2-0.7,2.7-1.8l2.8,1.3c-1.5,2.2-3.5,3.3-6.4,3.3c-3.8,0-6.5-2.3-6.5-6.4c0-3.7,2.5-6.4,6.5-6.4c3.6,0,6.4,2.1,6.4,6.8
			v0.3H56.1z"/>
		<rect x="0.8" y="1.9" class="st1" width="324.6" height="49.4"/>
		<rect x="65.1" y="2.2" class="st0" width="4.3" height="17.2"/>
		<rect x="71.1" y="2.2" class="st0" width="4.3" height="17.2"/>
		<polygon class="st2" points="77.2,2.2 77.2,19.4 90.3,19.4 90.3,15.7 82.1,15.7 82.1,12.4 87.2,12.4 87.2,8.9 82.1,8.9 82.1,5.7 
			90.1,5.7 90.1,2.2 		"/>
		<path class="st2" d="M91.4,7.3h4.3V9c1-1,2.4-2,3.9-2c1.2,0,3.5,0.7,3.5,3.7v8.7h-4.3v-7.7c0-0.9-0.2-1.8-1.3-1.8
			c-0.6,0-1.2,0.5-1.8,1.1v8.3h-4.3V7.3z"/>
		<path class="st2" d="M108.2,10.8c0,1,0.8,1.8,1.8,1.8c1,0,1.8-0.8,1.8-1.8c0-1-0.7-1.7-1.7-1.7C109.1,9,108.2,9.8,108.2,10.8
			 M109.2,19.1c-1.5,0-2.4,0.1-2.4,0.9c0,0.6,0.5,1,3.3,1c1.5,0,3.4-0.2,3.4-0.9C113.5,19.2,111.3,19.1,109.2,19.1 M117.3,9.6
			c-0.5-0.3-1.6-0.7-2-0.1c0.3,0.3,0.3,0.8,0.3,1.1c0,2.4-1.9,3.9-5.3,3.9h-1c-1,0-1.1,0.2-1.1,0.5c0,0.5,0.3,0.5,1.1,0.6l2.3,0.2
			c2.6,0.2,5.6,0.7,5.6,3.5c0,1.7-1.9,3.9-7.3,3.9c-3.5,0-6.2-0.6-6.2-2.3c0-1.2,1.2-1.8,2.2-2.1v0c-0.9-0.3-1.7-0.9-1.7-2
			c0-1.4,1.6-2.3,2.8-2.7v0c-1.4-0.5-2.5-1.7-2.5-3.3c0-1.7,1.7-3.8,5.3-3.8c1.6,0,3.3,0.2,4.6,1.2c0.7-0.9,1.9-1.2,3-1.2V9.6z"/>
		<rect x="0.8" y="1.9" class="st1" width="324.6" height="49.4"/>
		<path class="st2" d="M117.8,19.4h4.3V7.3h-4.3V19.4z M117.8,5.6h4.3V2.2h-4.3V5.6z"/>
		<path class="st2" d="M123.6,7.3h4.3V9c1-1,2.4-2,3.9-2c1.2,0,3.5,0.7,3.5,3.7v8.7H131v-7.7c0-0.9-0.2-1.8-1.3-1.8
			c-0.6,0-1.2,0.5-1.8,1.1v8.3h-4.3V7.3z"/>
		<path class="st2" d="M144.6,11.8c0-1.3-0.5-2.3-1.8-2.3c-1.5,0-2,1-2,2.3H144.6z M140.6,14.1c0,1.7,1.2,2.8,2.8,2.8
			c1.1,0,2.2-0.7,2.7-1.8l2.8,1.3c-1.5,2.2-3.5,3.3-6.4,3.3c-3.8,0-6.5-2.3-6.5-6.4c0-3.7,2.5-6.4,6.5-6.4c3.6,0,6.4,2.1,6.4,6.8
			v0.3H140.6z"/>
		<path class="st2" d="M157.8,11.8c0-1.3-0.5-2.3-1.8-2.3c-1.5,0-2,1-2,2.3H157.8z M153.9,14.1c0,1.7,1.2,2.8,2.8,2.8
			c1.1,0,2.2-0.7,2.8-1.8l2.8,1.3c-1.5,2.2-3.5,3.3-6.4,3.3c-3.8,0-6.5-2.3-6.5-6.4c0-3.7,2.5-6.4,6.5-6.4c3.6,0,6.4,2.1,6.4,6.8
			v0.3H153.9z"/>
		<path class="st2" d="M163.2,7.3h4.3v1.9h0c0.9-1.4,2.6-2.1,4.3-2.2v4.5c-0.9-0.4-1.7-0.6-2.3-0.6c-0.8,0-1.4,0.3-2,0.8v7.7h-4.3
			V7.3z"/>
		<rect x="0.8" y="1.9" class="st1" width="324.6" height="49.4"/>
		<path class="st2" d="M172.8,19.4h4.3V7.3h-4.3V19.4z M172.8,5.6h4.3V2.2h-4.3V5.6z"/>
		<path class="st2" d="M178.6,7.3h4.3V9c1-1,2.4-2,3.9-2c1.2,0,3.5,0.7,3.5,3.7v8.7H186v-7.7c0-0.9-0.2-1.8-1.3-1.8
			c-0.6,0-1.2,0.5-1.8,1.1v8.3h-4.3V7.3z"/>
		<path class="st2" d="M195.4,10.8c0,1,0.8,1.8,1.8,1.8c1,0,1.8-0.8,1.8-1.8c0-1-0.8-1.7-1.7-1.7C196.3,9,195.4,9.8,195.4,10.8
			 M196.3,19.1c-1.5,0-2.4,0.1-2.4,0.9c0,0.6,0.5,1,3.3,1c1.5,0,3.4-0.2,3.4-0.9C200.6,19.2,198.4,19.1,196.3,19.1 M204.4,9.6
			c-0.5-0.3-1.6-0.7-2-0.1c0.2,0.3,0.3,0.8,0.3,1.1c0,2.4-1.9,3.9-5.3,3.9h-1c-1,0-1.1,0.2-1.1,0.5c0,0.5,0.2,0.5,1.1,0.6l2.3,0.2
			c2.6,0.2,5.6,0.7,5.6,3.5c0,1.7-1.9,3.9-7.3,3.9c-3.5,0-6.2-0.6-6.2-2.3c0-1.2,1.2-1.8,2.2-2.1v0c-0.9-0.3-1.7-0.9-1.7-2
			c0-1.4,1.6-2.3,2.7-2.7v0c-1.4-0.5-2.5-1.7-2.5-3.3c0-1.7,1.7-3.8,5.3-3.8c1.6,0,3.3,0.2,4.6,1.2c0.7-0.9,1.9-1.2,3-1.2V9.6z"/>
		<path class="st3" d="M4.1,31.9c0-0.9,0-1.5-0.2-1.7c-0.1-0.2-0.4-0.3-1-0.3l-1.1-0.1v-0.7c0.6,0,1.3,0,1.9,0c0.6,0,1.3,0,1.9,0
			c2,0,4.1-0.1,5.4-0.1c1,0,2.1,0,2.9,0.1c-0.3,1-0.4,2.3-0.4,3.5h-0.8v-1.5c0-0.3,0-0.5-0.2-0.6c-1.2-0.5-3-0.5-4.5-0.5
			c-0.6,0-1.3,0-1.9,0.2v6.1c0.7,0,1.6,0.1,2.6,0.1c1.4,0,2.2-0.1,2.4-0.2c0.1-0.1,0.2-0.3,0.2-0.6l0.1-1.2h0.7
			c0,0.9-0.1,1.8-0.1,2.6c0,0.8,0,1.7,0.1,2.5h-0.7l-0.1-1.3c0-0.3-0.1-0.5-0.2-0.6c-0.3-0.2-1-0.3-2.4-0.3c-1.1,0-1.9,0-2.6,0.1
			v6.4C6.9,44,7.6,44,8.2,44c1.9,0,4.2-0.1,4.6-0.3c0.3-0.2,0.6-1.2,0.8-2.6h0.8c-0.2,1.1-0.4,2.5-0.4,3.7c-0.9,0-2.3,0.1-3.8,0.1
			H9.6c-1.8,0-3.6-0.1-5-0.1c-0.9,0-1.6,0-2.4,0.1v-0.7L3,44.2c0.5,0,0.8-0.1,1-0.3c0.2-0.2,0.2-0.8,0.2-1.7V31.9z"/>
		<path class="st3" d="M22.7,39.1c-1.1,0.2-2.2,0.3-3.3,0.8C18.6,40.2,18,41.2,18,42c0,1.2,0.9,1.9,1.8,1.9c0.7,0,1.4-0.5,2.2-1
			c0.4-0.3,0.6-0.6,0.7-0.8V39.1z M22.7,38.3L22.7,38.3c0-1.8-0.9-2.9-2.9-2.9c-1,0-1.3,0.1-1.6,0.5c-0.1,0.2-0.3,0.5-0.4,0.8
			l-0.3,0.7L17,37.2v-1.5l1.2-0.7c1-0.6,1.9-0.8,2.6-0.8c2.9,0,3.7,1.3,3.7,4.5v4.2c0,0.4,0,0.7,0.1,1c0,0.2,0.2,0.3,0.6,0.3l0.9,0
			V45c-0.6,0-1.1-0.1-1.7-0.1c-0.6,0-1.2,0-1.8,0.1l0.1-1.9l-2.8,2c-0.2,0.1-0.6,0.2-1,0.2c-1.6,0-2.8-0.9-2.8-2.8
			c0-2.6,2.3-3.3,4.4-3.7L22.7,38.3z"/>
		<path class="st3" d="M29.1,37.5c0-0.7,0-1.2-0.2-1.4c-0.1-0.2-0.4-0.3-0.8-0.3h-0.8v-0.6c1.3-0.1,2.7-0.6,3.6-0.9l0.2,0.1v2.3h0
			l1.2-1.5c0.5-0.7,1.3-0.9,1.9-0.9c0.4,0,0.9,0.1,1,0.2l-0.2,2.7h-0.5c-0.2-0.5-0.7-1.1-1.5-1.1c-1,0-2,1.1-2,2.5v3.9
			c0,0.6,0,1.1,0.1,1.3c0.1,0.2,0.4,0.3,1,0.3l1.2,0.1V45c-1.2,0-2.1-0.1-3.2-0.1c-1.1,0-2,0-2.9,0.1v-0.7l1.1-0.1
			c0.4,0,0.6-0.1,0.7-0.3c0.1-0.3,0.1-0.7,0.1-1.3V37.5z"/>
		<path class="st3" d="M36.2,36.3v-0.5L38,35v-1.6c0-0.6,0-1.2-0.1-1.8c0.8-0.2,1.5-0.6,1.9-0.9l0.3,0.3c-0.1,1-0.3,2.3-0.3,3.2v0.9
			L43,35l-0.2,1.2h-2.9v6c0,1,0.3,1.6,1.3,1.6c0.6,0,1-0.3,1.3-0.4l0.3,0.4l-1.1,1.2c-0.2,0.2-1,0.3-1.5,0.3c-1.2,0-2.2-0.6-2.2-2.4
			v-6.6L36.2,36.3z"/>
		<path class="st3" d="M45.2,30.8c0-0.5-0.1-0.9-0.6-0.9h-1.3v-0.6c1.2-0.2,2.4-0.4,3.6-0.8l0.2,0.2v7.7h0l1.7-1.5
			c0.5-0.4,0.9-0.6,1.8-0.6c2.7,0,3.8,1.5,3.8,4v4.4c0,0.6,0,1.1,0.1,1.3c0.1,0.2,0.3,0.3,0.7,0.3l0.9,0.1V45
			c-0.6,0-1.2-0.1-1.9-0.1c-0.6,0-1.3,0-1.8,0.1v-6.5c0-1.9-1.1-2.9-2.6-2.9c-1.4,0-2.8,1.2-2.8,2.1v4.8c0,0.6,0,1.1,0.1,1.3
			c0.1,0.2,0.3,0.3,0.7,0.3l1,0.1V45c-0.8,0-1.7-0.1-2.8-0.1c-1.1,0-2,0-2.8,0.1v-0.7l1-0.1c0.4,0,0.6-0.1,0.7-0.3
			c0.1-0.2,0.1-0.7,0.1-1.3V30.8z"/>
		<path class="st3" d="M69.5,39.1c-1.1,0.2-2.2,0.3-3.3,0.8c-0.8,0.3-1.4,1.3-1.4,2.1c0,1.2,0.9,1.9,1.8,1.9c0.7,0,1.4-0.5,2.2-1
			c0.4-0.3,0.6-0.6,0.7-0.8V39.1z M69.5,38.3L69.5,38.3c0-1.8-0.9-2.9-2.9-2.9c-1,0-1.3,0.1-1.6,0.5c-0.1,0.2-0.3,0.5-0.4,0.8
			l-0.3,0.7l-0.6-0.2v-1.5L65,35c1-0.6,1.9-0.8,2.6-0.8c2.9,0,3.7,1.3,3.7,4.5v4.2c0,0.4,0,0.7,0.1,1c0,0.2,0.2,0.3,0.6,0.3l0.9,0
			V45c-0.6,0-1.1-0.1-1.7-0.1c-0.6,0-1.2,0-1.8,0.1l0.1-1.9l-2.8,2c-0.2,0.1-0.6,0.2-1,0.2c-1.5,0-2.8-0.9-2.8-2.8
			c0-2.6,2.3-3.3,4.4-3.7L69.5,38.3z"/>
		<path class="st3" d="M77.5,42.6c0,0.6,0,1.1,0.1,1.3c0.1,0.2,0.3,0.3,0.7,0.3l1,0.1V45c-0.8,0-1.7-0.1-2.8-0.1c-1.1,0-2,0-2.8,0.1
			v-0.7l1-0.1c0.4,0,0.6-0.1,0.7-0.3c0.1-0.2,0.1-0.7,0.1-1.3v-5.1c0-0.7,0-1.2-0.2-1.4c-0.1-0.2-0.4-0.3-0.8-0.3h-0.8v-0.6
			c1.3-0.1,2.7-0.6,3.6-0.9l0.2,0.1v1.9h0l1.7-1.5c0.5-0.4,0.9-0.6,1.8-0.6c2.7,0,3.8,1.5,3.8,4v4.4c0,0.6,0,1.1,0.1,1.3
			c0.1,0.2,0.3,0.3,0.7,0.3l0.9,0.1V45c-0.6,0-1.2-0.1-1.9-0.1c-0.6,0-1.3,0-1.8,0.1v-6.5c0-1.9-1.1-2.9-2.6-2.9
			c-1.4,0-2.8,1.2-2.8,2.1V42.6z"/>
		<path class="st3" d="M96.2,36.9c0-0.5-1.8-1.6-3.1-1.6H93c-2.3,0.1-3.4,1.4-3.4,4.2c0,2.1,1.2,4.4,3.6,4.4c1,0,1.9-0.7,2.5-1.4
			c0.5-0.7,0.6-1.3,0.6-2.1v-0.5V36.9z M96.2,30.8c0-0.5-0.1-0.9-0.6-0.9h-1.3v-0.6c1.2-0.2,2.4-0.4,3.6-0.8l0.2,0.2v14
			c0,0.6,0,1.1,0.1,1.3c0.1,0.2,0.3,0.3,0.7,0.3l1,0.1V45c-0.9,0-1.5-0.1-2.1-0.1c-0.6,0-1.2,0-1.8,0.1l0.1-2.1L93.8,45
			c-0.2,0.2-0.9,0.2-1.5,0.2c-3.2,0-4.7-2.3-4.7-5.3c0-2.1,1-3.6,2.1-4.2l2-1c0.7-0.4,1.3-0.4,1.7-0.4c1,0,1.8,0.3,2.8,0.7V30.8z"/>
		<path class="st3" d="M116.9,38.8L114,32l-2.9,6.8H116.9z M120.5,41.9c0.2,0.5,0.5,1.1,0.7,1.5c0.3,0.4,0.5,0.7,0.9,0.8l0.8,0.1V45
			c-1,0-2-0.1-3-0.1c-0.8,0-1.8,0-3,0.1v-0.7l1.1-0.1c0.5,0,0.9-0.2,0.9-0.5c0-0.3-0.2-0.9-0.5-1.5l-1-2.6h-6.6l-0.6,1.5
			c-0.2,0.5-0.8,2-0.8,2.4c0,0.5,0.4,0.6,1.1,0.6l0.8,0.1V45c-1.1,0-2-0.1-2.6-0.1c-0.9,0-1.8,0-2.6,0.1v-0.7l0.8-0.1
			c0.5,0,1-0.5,1.2-1.1l4.1-9.2c0.7-1.6,1.5-3.3,2.1-4.9h0.7L120.5,41.9z"/>
		<path class="st3" d="M123.9,36.3v-0.5l1.8-0.8v-1.6c0-0.6,0-1.2-0.1-1.8c0.8-0.2,1.5-0.6,1.9-0.9l0.3,0.3c-0.1,1-0.3,2.3-0.3,3.2
			v0.9l3.1-0.1l-0.2,1.2h-2.9v6c0,1,0.3,1.6,1.3,1.6c0.6,0,1-0.3,1.3-0.4l0.3,0.4l-1.1,1.2c-0.2,0.2-1,0.3-1.5,0.3
			c-1.2,0-2.2-0.6-2.2-2.4v-6.6L123.9,36.3z"/>
		<path class="st3" d="M133.1,37.5c0-0.7,0-1.2-0.2-1.4c-0.1-0.2-0.4-0.3-0.8-0.3h-0.8v-0.6c1.3-0.1,2.7-0.6,3.6-0.9l0.2,0.1v1.9
			l1.6-1.5c0.5-0.4,1.1-0.6,2-0.6c1.3,0,2.5,0.6,3.1,2.1l1.7-1.6c0.5-0.4,1.1-0.6,2-0.6c1.8,0,3.3,1.3,3.3,3.7v4.7
			c0,0.6,0,1.1,0.1,1.3c0.1,0.2,0.3,0.3,0.7,0.3l1.1,0.1V45c-0.7,0-1.4-0.1-2-0.1c-0.6,0-1.3,0-1.8,0.1v-6.5c0-1.5-0.7-2.9-2.1-2.9
			c-1.4,0-2.8,1.2-2.8,2.1v4.8c0,0.6,0,1.1,0.1,1.3c0.1,0.2,0.3,0.3,0.7,0.3l1,0.1V45c-0.8,0-1.7-0.1-2.8-0.1c-1.1,0-2,0-2.9,0.1
			v-0.7l1-0.1c0.4,0,0.6-0.1,0.7-0.3c0.1-0.3,0.1-0.7,0.1-1.3v-4.1c0-1.5-0.7-2.9-2.1-2.9c-1.4,0-2.8,1.2-2.8,2.1v4.8
			c0,0.6,0,1.1,0.1,1.3c0.1,0.2,0.3,0.3,0.7,0.3l1,0.1V45c-0.7,0-1.6-0.1-2.8-0.1s-2,0-2.8,0.1v-0.7l1-0.1c0.4,0,0.6-0.1,0.7-0.3
			c0.1-0.3,0.1-0.7,0.1-1.3V37.5z"/>
		<path class="st3" d="M153.8,39c0,2.4,0.9,5.6,3.8,5.6c2.1,0,3-2.1,3-4.2c0-2.9-1.4-5.5-3.6-5.5C154.6,35,153.8,36.9,153.8,39
			 M156.6,45.4c-2.8,0-4.9-2.3-4.9-5.3c0-3.4,2.1-5.8,5.8-5.8c2.9,0,5.2,2.3,5.2,5.2c0,3.5-2.5,6-6,6H156.6z"/>
		<path class="st3" d="M165.1,41.6v0.9c0,1.4,1.6,1.9,2.9,1.9c1.4,0,2.7-0.8,2.7-2.1c0-0.7-0.4-1.3-1.1-1.5c-1-0.2-2.3-0.5-3.4-0.9
			c-1.1-0.4-1.9-1.1-1.9-2.5c0-2.5,2.1-3.3,4.3-3.3c1.1,0,2.1,0.3,2.9,0.6c-0.1,0.8-0.1,1.7-0.1,2.6h-0.6v-0.5
			c0-1.2-1.3-1.9-2.6-1.9c-1.9,0-2.2,1.1-2.2,1.8c0,1,0.8,1.5,2.5,1.8c2.7,0.5,4,1.1,4,2.9c0,2.5-2.5,3.8-5,3.8
			c-1.1,0-2.1-0.2-3.2-0.5c0.2-1,0.2-2.1,0.2-3.2H165.1z"/>
		<path class="st3" d="M177.1,42.7c0.9,1,1.9,1.3,3.2,1.3c1.8,0,3.4-1.9,3.4-4.5c0-2.1-1.2-3.9-3.6-3.9c-1.7,0-2.6,1-3,1.7
			c-0.1,0.2-0.1,0.4-0.1,0.6V42.7z M175.2,37.5c0-0.7,0-1.2-0.2-1.4c-0.1-0.2-0.4-0.3-0.8-0.3h-0.8v-0.6c1.3-0.1,2.7-0.6,3.6-0.9
			l0.2,0.1v2.1h0l1.8-1.7c0.4-0.3,1.2-0.6,2.1-0.6c2.4,0,4.6,1.8,4.6,4.7c0,1.5-1.2,3.8-2,4.3l-2.6,1.7c-0.4,0.3-1,0.4-1.6,0.4
			c-0.7,0-1.8-0.1-2.5-0.6v4.3c0,0.6,0,1.1,0.1,1.3c0.1,0.2,0.3,0.3,0.7,0.3l1,0.1v0.7c-0.8,0-1.7-0.1-2.8-0.1c-1.1,0-2,0-2.9,0.1
			v-0.7l1-0.1c0.4,0,0.6-0.1,0.7-0.3c0.1-0.2,0.1-0.7,0.1-1.3V37.5z"/>
		<path class="st3" d="M188.8,30.8c0-0.5-0.1-0.9-0.6-0.9H187v-0.6c1.2-0.2,2.4-0.4,3.6-0.8l0.2,0.2v7.7h0l1.7-1.5
			c0.5-0.4,0.9-0.6,1.8-0.6c2.7,0,3.8,1.5,3.8,4v4.4c0,0.6,0,1.1,0.1,1.3c0.1,0.2,0.3,0.3,0.7,0.3l0.9,0.1V45
			c-0.6,0-1.2-0.1-1.9-0.1c-0.6,0-1.3,0-1.8,0.1v-6.5c0-1.9-1.1-2.9-2.6-2.9c-1.4,0-2.8,1.2-2.8,2.1v4.8c0,0.6,0,1.1,0.1,1.3
			c0.1,0.2,0.3,0.3,0.7,0.3l1,0.1V45c-0.8,0-1.7-0.1-2.8-0.1c-1.1,0-2,0-2.8,0.1v-0.7l1-0.1c0.4,0,0.6-0.1,0.7-0.3
			c0.1-0.2,0.1-0.7,0.1-1.3V30.8z"/>
		<path class="st3" d="M202.9,38.5v0.3c1,0.1,2,0.1,2.9,0.1c0.9,0,1.7,0,2.5-0.1c0-2.1-0.8-3.9-2.4-3.9
			C204.2,35,202.9,36.2,202.9,38.5 M210.3,38.4c0,0.3,0,0.6,0,1c-1.4,0.2-2.8,0.3-4.1,0.3h-3.3c0,2.7,1.3,4.5,4.1,4.5
			c1.1,0,2-0.5,2.8-1.1l0.3,0.2l-0.5,0.8c-0.2,0.3-2.1,1.3-3.6,1.3c-3.4,0-5.3-2.2-5.3-5.3c0-2.2,0.6-3.5,1.6-4.4
			c0.4-0.3,0.9-0.7,1.4-0.9c0.8-0.4,1.5-0.6,2.2-0.6C208.5,34.2,210.3,35.8,210.3,38.4"/>
		<path class="st3" d="M213.4,37.5c0-0.7,0-1.2-0.2-1.4c-0.1-0.2-0.4-0.3-0.8-0.3h-0.8v-0.6c1.3-0.1,2.7-0.6,3.6-0.9l0.2,0.1v2.3h0
			l1.2-1.5c0.5-0.7,1.3-0.9,1.9-0.9c0.4,0,0.9,0.1,1,0.2l-0.2,2.7h-0.5c-0.3-0.5-0.7-1.1-1.6-1.1c-1,0-2,1.1-2,2.5v3.9
			c0,0.6,0,1.1,0.1,1.3c0.1,0.2,0.4,0.3,1,0.3l1.2,0.1V45c-1.2,0-2.1-0.1-3.2-0.1c-1.1,0-2,0-2.9,0.1v-0.7l1.1-0.1
			c0.4,0,0.6-0.1,0.7-0.3c0.1-0.3,0.1-0.7,0.1-1.3V37.5z"/>
		<path class="st3" d="M224.5,30.5c0,0.7-0.6,1.3-1.3,1.3c-0.7,0-1.3-0.6-1.3-1.3c0-0.7,0.6-1.3,1.3-1.3
			C223.9,29.2,224.5,29.9,224.5,30.5 M224.3,42.6c0,0.6,0,1.1,0.1,1.3c0.1,0.2,0.3,0.3,0.7,0.3l1.1,0.1V45c-0.8,0-1.7-0.1-2.9-0.1
			c-1.1,0-2,0-2.9,0.1v-0.7l1-0.1c0.4,0,0.6-0.1,0.7-0.3c0.1-0.2,0.1-0.7,0.1-1.3v-5.1c0-0.7,0-1.2-0.2-1.4
			c-0.1-0.2-0.4-0.3-0.8-0.3h-0.8v-0.6c1.3-0.1,2.7-0.6,3.6-0.9l0.2,0.1V42.6z"/>
		<path class="st3" d="M235.1,37.8l-0.2-1.4c-0.2-0.5-1.6-1-2.4-1c-1.6,0-3.3,0.7-3.3,3.7c0,3.6,2.1,5.1,4.3,5.1
			c0.8,0,1.7-0.3,2.3-0.7l0.2,0.3l-0.5,0.7c-0.2,0.2-1.5,0.8-3.2,0.8c-2.7,0-5.2-1.9-5.2-5.3c0-2.1,1-3.6,2-4.3
			c0.5-0.4,1.3-0.8,1.9-1.1c0.7-0.3,1.4-0.5,2.2-0.5c1.3,0,2.2,0.4,2.7,0.8c-0.2,0.7-0.3,1.8-0.3,2.8H235.1z"/>
		<path class="st3" d="M252,32.9l-0.1-1.3c-0.1-0.6-0.2-0.8-1-1.4c-0.6-0.4-1.6-0.5-2.5-0.5c-1.6,0-3.4,1.1-3.4,3.3
			c0,1.6,0.9,2.5,3.8,2.8c3.2,0.3,5.2,1.1,5.2,3.7c0,3.9-3.5,5.8-6.9,5.8c-1.6,0-3.1-0.5-3.9-0.9c0.1-0.9,0.2-1.8,0.2-2.6V41h0.7
			l0.2,1.5c0.1,1,1.9,1.8,3.7,1.8c2.1,0,4.1-1.3,4.1-3.5c0-2.2-1.7-2.8-4-3.1c-3.6-0.4-5-1.5-5-3.9c0-3.5,3.1-5.2,5.8-5.2
			c1.8,0,3.2,0.6,4.1,1c-0.2,1.2-0.3,2.1-0.3,3.2H252z"/>
		<path class="st3" d="M262.9,37.8l-0.2-1.4c-0.2-0.5-1.6-1-2.4-1c-1.6,0-3.3,0.7-3.3,3.7c0,3.6,2.1,5.1,4.3,5.1
			c0.8,0,1.7-0.3,2.3-0.7l0.2,0.3l-0.5,0.7c-0.2,0.2-1.5,0.8-3.2,0.8c-2.7,0-5.2-1.9-5.2-5.3c0-2.1,1-3.6,2-4.3
			c0.5-0.4,1.3-0.8,1.9-1.1c0.7-0.3,1.4-0.5,2.2-0.5c1.3,0,2.2,0.4,2.7,0.8c-0.2,0.7-0.3,1.8-0.3,2.8H262.9z"/>
		<path class="st3" d="M269.1,30.5c0,0.7-0.6,1.3-1.3,1.3s-1.3-0.6-1.3-1.3c0-0.7,0.6-1.3,1.3-1.3S269.1,29.9,269.1,30.5
			 M268.9,42.6c0,0.6,0,1.1,0.1,1.3c0.1,0.2,0.3,0.3,0.7,0.3l1.1,0.1V45c-0.8,0-1.7-0.1-2.9-0.1c-1.1,0-2,0-2.9,0.1v-0.7l1-0.1
			c0.4,0,0.6-0.1,0.7-0.3c0.1-0.2,0.1-0.7,0.1-1.3v-5.1c0-0.7,0-1.2-0.2-1.4c-0.1-0.2-0.4-0.3-0.8-0.3h-0.8v-0.6
			c1.3-0.1,2.7-0.6,3.6-0.9l0.2,0.1V42.6z"/>
		<path class="st3" d="M274,38.5v0.3c1,0.1,2,0.1,2.9,0.1c0.9,0,1.7,0,2.5-0.1c0-2.1-0.8-3.9-2.4-3.9C275.3,35,274,36.2,274,38.5
			 M281.5,38.4c0,0.3,0,0.6,0,1c-1.4,0.2-2.8,0.3-4.1,0.3H274c0,2.7,1.3,4.5,4.1,4.5c1.1,0,2-0.5,2.8-1.1l0.3,0.2l-0.5,0.8
			c-0.2,0.3-2.1,1.3-3.6,1.3c-3.4,0-5.3-2.2-5.3-5.3c0-2.2,0.6-3.5,1.6-4.4c0.4-0.3,0.9-0.7,1.4-0.9c0.8-0.4,1.5-0.6,2.2-0.6
			C279.6,34.2,281.5,35.8,281.5,38.4"/>
		<path class="st3" d="M286.1,42.6c0,0.6,0,1.1,0.1,1.3c0.1,0.2,0.3,0.3,0.7,0.3l1,0.1V45c-0.8,0-1.7-0.1-2.8-0.1
			c-1.1,0-2,0-2.8,0.1v-0.7l1-0.1c0.4,0,0.6-0.1,0.7-0.3c0.1-0.2,0.1-0.7,0.1-1.3v-5.1c0-0.7,0-1.2-0.2-1.4
			c-0.1-0.2-0.4-0.3-0.8-0.3h-0.8v-0.6c1.3-0.1,2.7-0.6,3.6-0.9l0.2,0.1v1.9h0l1.7-1.5c0.5-0.4,0.9-0.6,1.8-0.6c2.7,0,3.8,1.5,3.8,4
			v4.4c0,0.6,0,1.1,0.1,1.3c0.1,0.2,0.3,0.3,0.7,0.3l0.9,0.1V45c-0.6,0-1.2-0.1-1.9-0.1c-0.6,0-1.3,0-1.8,0.1v-6.5
			c0-1.9-1.1-2.9-2.6-2.9c-1.4,0-2.8,1.2-2.8,2.1V42.6z"/>
		<path class="st3" d="M303.9,37.8l-0.2-1.4c-0.2-0.5-1.6-1-2.4-1c-1.6,0-3.3,0.7-3.3,3.7c0,3.6,2.1,5.1,4.3,5.1
			c0.8,0,1.7-0.3,2.3-0.7l0.2,0.3l-0.5,0.7c-0.2,0.2-1.5,0.8-3.2,0.8c-2.7,0-5.2-1.9-5.2-5.3c0-2.1,1-3.6,2-4.3
			c0.5-0.4,1.3-0.8,1.9-1.1c0.7-0.3,1.4-0.5,2.2-0.5c1.3,0,2.2,0.4,2.7,0.8c-0.2,0.7-0.3,1.8-0.3,2.8H303.9z"/>
		<path class="st3" d="M308.3,38.5v0.3c1,0.1,2,0.1,2.9,0.1c0.9,0,1.7,0,2.5-0.1c0-2.1-0.8-3.9-2.4-3.9
			C309.7,35,308.3,36.2,308.3,38.5 M315.8,38.4c0,0.3,0,0.6,0,1c-1.4,0.2-2.8,0.3-4.1,0.3h-3.3c0,2.7,1.3,4.5,4.1,4.5
			c1.1,0,2-0.5,2.8-1.1l0.3,0.2l-0.5,0.8c-0.2,0.3-2.1,1.3-3.6,1.3c-3.4,0-5.3-2.2-5.3-5.3c0-2.2,0.6-3.5,1.6-4.4
			c0.4-0.3,0.9-0.7,1.4-0.9c0.8-0.4,1.5-0.6,2.2-0.6C314,34.2,315.8,35.8,315.8,38.4"/>
		<path class="st3" d="M318.1,41.6v0.9c0,1.4,1.6,1.9,2.9,1.9c1.4,0,2.7-0.8,2.7-2.1c0-0.7-0.4-1.3-1.1-1.5c-1-0.2-2.3-0.5-3.4-0.9
			c-1.1-0.4-1.9-1.1-1.9-2.5c0-2.5,2.1-3.3,4.3-3.3c1.1,0,2.1,0.3,2.9,0.6c-0.1,0.8-0.1,1.7-0.1,2.6h-0.6v-0.5
			c0-1.2-1.3-1.9-2.6-1.9c-1.9,0-2.2,1.1-2.2,1.8c0,1,0.8,1.5,2.5,1.8c2.7,0.5,4,1.1,4,2.9c0,2.5-2.5,3.8-5,3.8
			c-1.1,0-2.1-0.2-3.2-0.5c0.2-1,0.2-2.1,0.2-3.2H318.1z"/>
	</g>
	<g>
		<g>
			<g>
				<defs>
					<rect id="SVGID_1_" x="366.6" y="1.8" width="210.3" height="44.9"/>
				</defs>
				<clipPath id="SVGID_2_">
					<use xlink:href="#SVGID_1_"  style="overflow:visible;"/>
				</clipPath>
				<path class="st4" d="M373.4,38.9l-0.6,0.5c-0.5-0.8-1.3-1.3-2.4-1.3c-1.6,0-2.9,1.3-2.9,2.9c0,1.7,1.2,2.9,2.9,2.9
					c1,0,1.8-0.5,2.4-1.3l0.6,0.5c-0.6,0.9-1.7,1.6-3,1.6c-2.1,0-3.7-1.6-3.7-3.7c0-2.1,1.7-3.7,3.7-3.7
					C371.7,37.3,372.8,38,373.4,38.9"/>
				<path class="st4" d="M375.5,42c0,1.1,0.8,2,1.9,2c1.1,0,1.9-0.9,1.9-2c0-1.1-0.8-2-1.9-2C376.3,40,375.5,40.9,375.5,42
					 M380.2,42c0,1.6-1.2,2.8-2.8,2.8c-1.5,0-2.8-1.2-2.8-2.8s1.2-2.8,2.8-2.8C379,39.2,380.2,40.5,380.2,42"/>
			</g>
			<rect x="381.8" y="36.5" class="st5" width="0.8" height="8.2"/>
			<rect x="384.8" y="36.5" class="st5" width="0.8" height="8.2"/>
			<g>
				<defs>
					<rect id="SVGID_3_" x="366.6" y="1.8" width="210.3" height="44.9"/>
				</defs>
				<clipPath id="SVGID_4_">
					<use xlink:href="#SVGID_3_"  style="overflow:visible;"/>
				</clipPath>
				<path class="st6" d="M388.3,41.5h3.4c0-1-0.7-1.5-1.6-1.5C389.2,40,388.5,40.6,388.3,41.5 M392.5,42.3h-4.2
					c0.1,1.1,0.9,1.7,2,1.7c0.7,0,1.2-0.3,1.6-0.7l0.5,0.6c-0.5,0.6-1.3,0.9-2.1,0.9c-1.6,0-2.8-1.2-2.8-2.8c0-1.6,1.2-2.8,2.7-2.8
					c1.4,0,2.4,1,2.4,2.4C392.5,41.9,392.5,42.2,392.5,42.3"/>
				<path class="st6" d="M398.5,41.9c0-1.3-0.9-1.9-1.9-1.9c-1.1,0-1.9,0.8-1.9,1.9c0,1.1,0.8,1.9,1.9,1.9
					C397.6,43.9,398.5,43.3,398.5,41.9 M399.3,39.4v4.8c0,1.6-1,2.6-2.6,2.6c-1.1,0-2-0.5-2.5-1l0.5-0.6c0.5,0.4,1.1,0.8,2,0.8
					c1.1,0,1.8-0.6,1.8-1.8v-0.5c-0.4,0.6-1.2,0.9-2,0.9c-1.5,0-2.6-1.1-2.6-2.7c0-1.5,1.1-2.7,2.6-2.7c0.8,0,1.6,0.4,2,1v-0.9
					H399.3z"/>
				<path class="st6" d="M401.9,41.5h3.4c0-1-0.7-1.5-1.6-1.5C402.8,40,402.1,40.6,401.9,41.5 M406.1,42.3h-4.2
					c0.1,1.1,0.9,1.7,2,1.7c0.7,0,1.2-0.3,1.6-0.7l0.5,0.6c-0.5,0.6-1.3,0.9-2.1,0.9c-1.6,0-2.8-1.2-2.8-2.8c0-1.6,1.2-2.8,2.7-2.8
					c1.4,0,2.4,1,2.4,2.4C406.2,41.9,406.1,42.2,406.1,42.3"/>
				<path class="st6" d="M411.7,42c0,1.1,0.8,2,1.9,2c1.1,0,1.9-0.9,1.9-2c0-1.1-0.8-2-1.9-2C412.5,40,411.7,40.9,411.7,42
					 M416.4,42c0,1.6-1.2,2.8-2.8,2.8c-1.5,0-2.8-1.2-2.8-2.8s1.2-2.8,2.8-2.8C415.2,39.2,416.4,40.5,416.4,42"/>
				<path class="st6" d="M419.2,38.1v1.2h1.3v0.8h-1.3v4.6h-0.8v-4.6h-0.8v-0.8h0.8v-1.3c0-1.2,0.7-1.7,1.8-1.7c0.3,0,0.5,0,0.7,0.1
					v0.7c-0.2,0-0.3,0-0.5,0C419.6,37.1,419.2,37.3,419.2,38.1"/>
			</g>
			<path class="st5" d="M426.9,38.9l-1.4,3.6h2.9L426.9,38.9z M428.7,43.2h-3.5l-0.6,1.5h-0.9l3.1-7.3h0.3l3.1,7.3h-0.9L428.7,43.2z
				"/>
			<g>
				<defs>
					<rect id="SVGID_5_" x="366.6" y="1.8" width="210.3" height="44.9"/>
				</defs>
				<clipPath id="SVGID_6_">
					<use xlink:href="#SVGID_5_"  style="overflow:visible;"/>
				</clipPath>
				<path class="st7" d="M435.8,41.9c0-1.3-0.9-1.9-1.9-1.9c-1.1,0-1.9,0.8-1.9,1.9c0,1.1,0.8,1.9,1.9,1.9
					C434.8,43.9,435.8,43.3,435.8,41.9 M436.6,39.4v4.8c0,1.6-1,2.6-2.6,2.6c-1.1,0-2-0.5-2.5-1l0.5-0.6c0.5,0.4,1.1,0.8,2,0.8
					c1.1,0,1.8-0.6,1.8-1.8v-0.5c-0.4,0.6-1.2,0.9-2,0.9c-1.5,0-2.6-1.1-2.6-2.7c0-1.5,1.1-2.7,2.6-2.7c0.8,0,1.6,0.4,2,1v-0.9
					H436.6z"/>
				<path class="st7" d="M441.6,39.4v0.7h-0.3c-0.9,0-1.7,0.5-1.7,1.6v3h-0.8v-5.3h0.8v0.8c0.4-0.5,1-0.8,1.6-0.8
					C441.4,39.3,441.5,39.3,441.6,39.4"/>
				<path class="st7" d="M443.9,44.7h-0.8v-5.3h0.8V44.7z M444.1,37.3c0,0.4-0.3,0.6-0.6,0.6c-0.4,0-0.6-0.3-0.6-0.6
					c0-0.3,0.3-0.6,0.6-0.6C443.9,36.7,444.1,37,444.1,37.3"/>
				<path class="st7" d="M450.7,40.4l-0.6,0.5c-0.4-0.5-0.9-0.9-1.6-0.9c-1.1,0-1.9,0.9-1.9,2c0,1.1,0.8,2,1.9,2
					c0.7,0,1.2-0.3,1.6-0.9l0.6,0.5c-0.5,0.7-1.2,1.2-2.2,1.2c-1.6,0-2.8-1.2-2.8-2.8c0-1.6,1.2-2.8,2.8-2.8
					C449.4,39.2,450.2,39.7,450.7,40.4"/>
				<path class="st7" d="M456.5,42.6c0,1.4-1,2.2-2.2,2.2c-1.2,0-2.2-0.9-2.2-2.2v-3.2h0.8v3.3c0,0.9,0.6,1.4,1.4,1.4
					c0.7,0,1.4-0.5,1.4-1.4v-3.3h0.8V42.6z"/>
			</g>
			<rect x="458.6" y="36.5" class="st5" width="0.8" height="8.2"/>
			<g>
				<defs>
					<rect id="SVGID_7_" x="366.6" y="1.8" width="210.3" height="44.9"/>
				</defs>
				<clipPath id="SVGID_8_">
					<use xlink:href="#SVGID_7_"  style="overflow:visible;"/>
				</clipPath>
				<path class="st8" d="M464.6,44v0.7c-0.3,0.1-0.5,0.1-0.9,0.1c-1.1,0-1.8-0.5-1.8-1.7v-3H461v-0.8h0.9v-1.5h0.8v1.5h1.7v0.8h-1.7
					V43c0,0.8,0.5,1,1.1,1C464,44,464.3,44,464.6,44"/>
				<path class="st8" d="M470.4,42.6c0,1.4-1,2.2-2.2,2.2c-1.2,0-2.2-0.9-2.2-2.2v-3.2h0.8v3.3c0,0.9,0.6,1.4,1.4,1.4
					c0.7,0,1.4-0.5,1.4-1.4v-3.3h0.8V42.6z"/>
				<path class="st8" d="M475.1,39.4v0.7h-0.3c-0.9,0-1.7,0.5-1.7,1.6v3h-0.8v-5.3h0.8v0.8c0.4-0.5,1-0.8,1.6-0.8
					C474.9,39.3,475,39.3,475.1,39.4"/>
				<path class="st8" d="M476.9,41.5h3.4c0-1-0.7-1.5-1.6-1.5C477.8,40,477.1,40.6,476.9,41.5 M481.1,42.3h-4.2
					c0.1,1.1,0.9,1.7,2,1.7c0.7,0,1.2-0.3,1.6-0.7l0.5,0.6c-0.5,0.6-1.3,0.9-2.1,0.9c-1.6,0-2.8-1.2-2.8-2.8c0-1.6,1.2-2.8,2.7-2.8
					c1.4,0,2.4,1,2.4,2.4C481.1,41.9,481.1,42.2,481.1,42.3"/>
				<path class="st8" d="M490.4,42c0-1.4-0.9-2-1.9-2c-1.1,0-1.9,0.9-1.9,2c0,1.2,0.8,2,1.9,2C489.5,44,490.4,43.4,490.4,42
					 M491.3,39.4v5.3h-0.8v-0.8c-0.4,0.6-1.2,0.9-2,0.9c-1.5,0-2.6-1.2-2.6-2.8c0-1.6,1.1-2.8,2.6-2.8c0.8,0,1.6,0.4,2,1v-0.9H491.3
					z"/>
				<path class="st8" d="M497.7,41.3v3.3h-0.8v-3.2c0-0.8-0.5-1.4-1.3-1.4c-0.8,0-1.4,0.6-1.4,1.4v3.2h-0.8v-5.3h0.8v0.6
					c0.4-0.4,1-0.7,1.6-0.7C497,39.2,497.7,40.1,497.7,41.3"/>
				<path class="st8" d="M503.8,42c0-1.4-0.9-2-1.9-2c-1.1,0-1.9,0.8-1.9,2s0.8,2,1.9,2C502.9,44,503.8,43.4,503.8,42 M504.6,36.5
					v8.2h-0.8v-0.8c-0.4,0.6-1.2,1-2,1c-1.5,0-2.6-1.2-2.6-2.8c0-1.6,1.1-2.8,2.6-2.8c0.8,0,1.5,0.3,2,0.9v-3.7H504.6z"/>
			</g>
			<polygon class="st5" points="511,43.9 514.4,43.9 514.4,44.7 510.2,44.7 510.2,37.5 511,37.5 			"/>
			<g>
				<defs>
					<rect id="SVGID_9_" x="366.6" y="1.8" width="210.3" height="44.9"/>
				</defs>
				<clipPath id="SVGID_10_">
					<use xlink:href="#SVGID_9_"  style="overflow:visible;"/>
				</clipPath>
				<path class="st9" d="M516.7,44.7h-0.8v-5.3h0.8V44.7z M516.9,37.3c0,0.4-0.3,0.6-0.6,0.6c-0.4,0-0.6-0.3-0.6-0.6
					c0-0.3,0.3-0.6,0.6-0.6C516.7,36.7,516.9,37,516.9,37.3"/>
				<path class="st9" d="M520,38.1v1.2h1.3v0.8H520v4.6h-0.8v-4.6h-0.8v-0.8h0.8v-1.3c0-1.2,0.7-1.7,1.8-1.7c0.3,0,0.5,0,0.7,0.1
					v0.7c-0.2,0-0.3,0-0.5,0C520.5,37.1,520,37.3,520,38.1"/>
				<path class="st9" d="M523.2,41.5h3.4c0-1-0.7-1.5-1.6-1.5C524.1,40,523.4,40.6,523.2,41.5 M527.4,42.3h-4.2
					c0.1,1.1,0.9,1.7,2,1.7c0.7,0,1.2-0.3,1.6-0.7l0.5,0.6c-0.5,0.6-1.3,0.9-2.1,0.9c-1.6,0-2.8-1.2-2.8-2.8c0-1.6,1.2-2.8,2.7-2.8
					c1.4,0,2.4,1,2.4,2.4C527.4,41.9,527.4,42.2,527.4,42.3"/>
				<path class="st9" d="M536.9,38.6l-0.6,0.5c-0.4-0.6-1-0.9-1.7-0.9c-0.7,0-1.3,0.3-1.3,1.1c0,0.7,0.5,0.9,1.2,1.2l0.8,0.4
					c1,0.5,1.7,1,1.7,2c0,1.2-1,2-2.3,2c-1.1,0-2.1-0.6-2.7-1.6l0.6-0.5c0.4,0.7,1.1,1.2,2,1.2c0.9,0,1.5-0.5,1.5-1.2
					c0-0.7-0.5-0.9-1.2-1.3l-0.8-0.4c-0.8-0.4-1.6-0.9-1.6-1.9c0-1.1,1-1.9,2.2-1.9C535.6,37.3,536.5,37.9,536.9,38.6"/>
				<path class="st9" d="M543.3,40.4l-0.6,0.5c-0.4-0.5-0.9-0.9-1.6-0.9c-1.1,0-1.9,0.9-1.9,2c0,1.1,0.8,2,1.9,2
					c0.7,0,1.2-0.3,1.6-0.9l0.6,0.5c-0.5,0.7-1.2,1.2-2.2,1.2c-1.6,0-2.8-1.2-2.8-2.8c0-1.6,1.2-2.8,2.8-2.8
					C542,39.2,542.8,39.7,543.3,40.4"/>
				<path class="st9" d="M545.8,44.7h-0.8v-5.3h0.8V44.7z M546,37.3c0,0.4-0.3,0.6-0.6,0.6c-0.4,0-0.6-0.3-0.6-0.6
					c0-0.3,0.3-0.6,0.6-0.6C545.7,36.7,546,37,546,37.3"/>
				<path class="st9" d="M548.4,41.5h3.4c0-1-0.7-1.5-1.6-1.5C549.3,40,548.6,40.6,548.4,41.5 M552.6,42.3h-4.2
					c0.1,1.1,0.9,1.7,2,1.7c0.7,0,1.2-0.3,1.6-0.7l0.5,0.6c-0.5,0.6-1.3,0.9-2.1,0.9c-1.6,0-2.8-1.2-2.8-2.8c0-1.6,1.2-2.8,2.7-2.8
					c1.4,0,2.4,1,2.4,2.4C552.7,41.9,552.6,42.2,552.6,42.3"/>
				<path class="st9" d="M558.8,41.3v3.3H558v-3.2c0-0.8-0.5-1.4-1.3-1.4c-0.8,0-1.4,0.6-1.4,1.4v3.2h-0.8v-5.3h0.8v0.6
					c0.4-0.4,1-0.7,1.6-0.7C558.1,39.2,558.8,40.1,558.8,41.3"/>
				<path class="st9" d="M565.3,40.4l-0.6,0.5c-0.4-0.5-0.9-0.9-1.6-0.9c-1.1,0-1.9,0.9-1.9,2c0,1.1,0.8,2,1.9,2
					c0.7,0,1.2-0.3,1.6-0.9l0.6,0.5c-0.5,0.7-1.2,1.2-2.2,1.2c-1.6,0-2.8-1.2-2.8-2.8c0-1.6,1.2-2.8,2.8-2.8
					C564.1,39.2,564.8,39.7,565.3,40.4"/>
				<path class="st9" d="M567.4,41.5h3.4c0-1-0.7-1.5-1.6-1.5C568.3,40,567.6,40.6,567.4,41.5 M571.5,42.3h-4.2
					c0.1,1.1,0.9,1.7,2,1.7c0.7,0,1.2-0.3,1.6-0.7l0.5,0.6c-0.5,0.6-1.3,0.9-2.1,0.9c-1.6,0-2.8-1.2-2.8-2.8c0-1.6,1.2-2.8,2.7-2.8
					c1.4,0,2.4,1,2.4,2.4C571.6,41.9,571.6,42.2,571.5,42.3"/>
				<path class="st9" d="M576.7,40.1l-0.5,0.5c-0.3-0.4-0.8-0.6-1.3-0.6s-0.9,0.2-0.9,0.7c0,0.4,0.3,0.5,0.9,0.8l0.5,0.2
					c1,0.4,1.4,0.8,1.4,1.6c0,1-0.9,1.6-1.9,1.6c-0.9,0-1.6-0.5-2.1-1l0.5-0.6c0.4,0.5,0.9,0.8,1.5,0.8c0.6,0,1-0.3,1-0.8
					c0-0.5-0.4-0.6-0.9-0.9l-0.5-0.2c-0.8-0.3-1.3-0.7-1.3-1.5c0-1,0.8-1.5,1.8-1.5C575.7,39.2,576.3,39.6,576.7,40.1"/>
				<path class="st10" d="M507.7,8.5l-4.9,3.3c-1.5-2.5-3.5-4-6.4-4c-3.9,0-6.7,2.8-6.7,6.9c0,4.1,2.8,6.8,6.7,6.8
					c2.9,0,4.9-1.5,6.4-4l4.9,3.3c-2.2,4.2-6.4,6.6-11.3,6.6c-7.4,0-13.3-5.5-13.3-12.8c0-7.3,5.9-12.8,13.3-12.8
					C501.3,1.9,505.4,4.3,507.7,8.5"/>
			</g>
			<polygon class="st3" points="538.9,2.4 538.9,27 555.6,27 555.6,21.2 545.4,21.2 545.4,2.4 			"/>
			<g>
				<defs>
					<rect id="SVGID_11_" x="366.6" y="1.8" width="210.3" height="44.9"/>
				</defs>
				<clipPath id="SVGID_12_">
					<use xlink:href="#SVGID_11_"  style="overflow:visible;"/>
				</clipPath>
				<path class="st11" d="M576.2,6.9l-4.3,3.3c-1.1-1.6-2.2-2.6-4.1-2.6c-1.3,0-2.2,0.4-2.2,1.6c0,0.9,0.6,1.4,2.1,2l2.8,1.2
					c4.1,1.7,6.3,3.8,6.3,7.4c0,4.9-4,7.7-9,7.7c-4.5,0-8.1-2.2-9.8-5.5l4.3-3.3c1.2,1.6,2.7,3.2,5.5,3.2c1.7,0,2.5-0.6,2.5-1.8
					c0-1.2-0.8-1.5-2.5-2.3l-2.5-1.1c-3.9-1.7-6.2-4-6.2-7.4c0-4.4,3.6-7.3,8.6-7.3C572,1.9,574.7,4,576.2,6.9"/>
			</g>
			<path class="st3" d="M522.1,13.6l4.5,7.8h-9.1L522.1,13.6z M507.9,27h28.4L522.1,2.4L507.9,27z"/>
			<g>
				<defs>
					<rect id="SVGID_13_" x="366.6" y="1.8" width="210.3" height="44.9"/>
				</defs>
				<clipPath id="SVGID_14_">
					<use xlink:href="#SVGID_13_"  style="overflow:visible;"/>
				</clipPath>
				<path class="st12" d="M379.2,26.1c-6.4,0-11.2-5-11.2-11.5c0-6.5,4.8-11.4,11.2-11.4c3.7,0,6.8,1.7,8.8,4.3l0,0.1l1-0.8l0-0.1
					c-2.2-3-5.8-4.9-9.8-4.9h0h0c-3.5,0-6.6,1.4-8.9,3.7c-2.3,2.3-3.7,5.5-3.7,9.1v0c0,3.6,1.4,6.8,3.6,9.1c2.3,2.3,5.4,3.7,8.9,3.7
					h0c4.1,0,7.6-1.9,9.8-4.9l0-0.1l-1-0.8l0,0.1l-0.1,0l0.1,0C386,24.4,382.9,26.1,379.2,26.1"/>
				<path class="st12" d="M401.6,26.2L401.6,26.2L401.6,26.2c-4.5,0-7.9-3.5-7.9-8.2c0-4.6,3.4-8.2,7.9-8.2c4.5,0,8,3.6,8,8.2
					C409.6,22.5,406.1,26.2,401.6,26.2 M410.9,18c0-2.7-1-5-2.7-6.7c-1.7-1.7-4-2.7-6.6-2.7h0c-2.6,0-4.9,1-6.6,2.7
					c-1.7,1.7-2.7,4-2.7,6.7c0,2.6,1,5,2.7,6.7c1.7,1.7,4,2.7,6.6,2.7h0c2.6,0,4.9-1,6.6-2.7C409.9,23,410.9,20.6,410.9,18"/>
				<path class="st12" d="M423.5,10V8.9l-0.1,0c-0.3,0-0.6-0.1-1.1-0.1h0h0c-2.4,0-4.6,1-6,3.1l-0.1,0.2V8.9H415V27h1.3V16.1
					c0-2,0.8-3.5,2-4.5c1.2-1,2.8-1.6,4.3-1.6h0H423.5z"/>
				<path class="st12" d="M434.4,8.6L434.4,8.6c-2.5,0-4.5,1.1-5.6,2.8l-0.1,0.2V8.9h-1.3V27h1.3V15.5c0-3.3,2.4-5.8,5.8-5.8
					c1.7,0,3,0.6,3.9,1.6c0.9,1,1.4,2.5,1.4,4.1V27h1.3V15.5v0c0-2-0.6-3.8-1.7-5C438.2,9.3,436.5,8.6,434.4,8.6L434.4,8.6
					L434.4,8.6L434.4,8.6z"/>
				<path class="st12" d="M461.1,16.5c0,0.1,0,0.3,0,0.4l0,0.1h-14.2h-0.1l0-0.1c0.5-4,3.6-7.1,7.6-7.1
					C457.9,9.8,461.1,12.3,461.1,16.5 M447.9,11.3c-1.6,1.7-2.6,4.1-2.6,6.7c0,2.6,1,5,2.7,6.7c1.7,1.7,4,2.7,6.5,2.7
					c3,0,5.6-1.4,7.3-3.6l0-0.1l-0.9-0.8l0,0.1c-1.5,1.9-3.7,3.1-6.3,3.1c-4.4,0-7.8-3.4-7.9-7.9l0-0.1h15.6l0-0.1
					c0,0,0.1-0.7,0.1-1.5v0c0-2.5-0.9-4.5-2.4-5.9c-1.5-1.4-3.5-2.1-5.6-2.1h0C451.8,8.6,449.6,9.6,447.9,11.3"/>
			</g>
			<polygon class="st0" points="467.6,2.4 467.6,27 468.9,27 468.9,26.9 468.9,2.4 			"/>
			<polygon class="st0" points="475.3,2.4 475.3,27 476.5,27 476.5,26.9 476.5,2.4 			"/>
		</g>
	</g>
</g>
</svg>
